<?xml version="1.0" encoding="UTF-8"?>
<svg id="Layer_2" data-name="Layer 2" xmlns="http://www.w3.org/2000/svg" viewBox="0 0 634.69 188.66">
  <defs>
    <style>
      .cls-1 {
        fill: #f14108;
      }

      .cls-2 {
        fill: #2d2d2d;
      }
    </style>
  </defs>
  <g id="Layer_1-2" data-name="Layer 1">
    <g>
      <path class="cls-2" d="M202.39,122.44v38.12h-19.85V47.16h17.79v12.86c6.83-9.37,17.47-14.61,30.65-14.61,23.66,0,41.77,19.53,41.77,44.47s-18.26,44.47-41.77,44.47c-12.07,0-21.92-4.29-28.59-11.91ZM227.48,115.45c14.14,0,25.09-11.28,25.09-25.57s-10.96-25.57-25.09-25.57-25.09,10.96-25.09,25.57,10.8,25.57,25.09,25.57Z"/>
      <path class="cls-2" d="M277.34,90.04c0-25.41,19.22-44.63,44.79-44.63,19.22,0,36.37,10.16,40.66,31.45l-19.53,3.18c-2.38-11.28-12.39-15.72-21.12-15.72-13.98,0-24.78,11.28-24.78,25.73s10.8,25.25,24.78,25.25c9.69,0,18.9-4.29,21.76-15.56l19.85,1.75c-4.13,22.87-23.98,32.88-41.61,32.88-25.41,0-44.79-19.06-44.79-44.31Z"/>
      <path class="cls-2" d="M452.42,94.8v-27.82l19.85-19.83v46.38c0,12.86,8.1,21.92,20.17,21.92s20.65-8.74,20.96-25.41v-42.88h19.85v85.45h-17.63v-14.77c-6.35,10.32-16.52,16.52-28.91,16.52-20.65,0-34.31-15.72-34.31-39.55Z"/>
      <path class="cls-2" d="M564.33,122.44v38.12h-19.85V47.16h17.79v12.86c6.83-9.37,17.47-14.61,30.65-14.61,23.66,0,41.77,19.53,41.77,44.47s-18.26,44.47-41.77,44.47c-12.07,0-21.92-4.29-28.59-11.91ZM589.43,115.45c14.14,0,25.09-11.28,25.09-25.57s-10.96-25.57-25.09-25.57-25.09,10.96-25.09,25.57,10.8,25.57,25.09,25.57Z"/>
      <polygon class="cls-1" points="94.33 94.33 47.16 94.33 47.17 47.16 94.33 47.16 94.33 47.16 94.33 47.16 141.5 0 47.17 0 47.17 0 47.17 0 0 47.16 0 47.16 0 188.66 47.17 141.49 94.33 141.49 141.5 94.33 141.5 47.16 94.33 47.16 94.33 94.33"/>
      <polygon class="cls-2" points="389.6 84.48 426.93 47.16 451.23 47.16 418.57 79.82 455.36 132.6 431.53 132.6 404.63 93.75 389.6 108.78 389.6 132.6 369.75 132.6 369.75 19.2 389.6 19.2 389.6 84.48 389.6 84.48"/>
    </g>
  </g>
</svg>